<?xml version="1.0" encoding="UTF-8" standalone="no"?>
<!-- Created with Inkscape (http://www.inkscape.org/) -->

<svg
   xmlns:dc="http://purl.org/dc/elements/1.1/"
   xmlns:cc="http://creativecommons.org/ns#"
   xmlns:rdf="http://www.w3.org/1999/02/22-rdf-syntax-ns#"
   xmlns:svg="http://www.w3.org/2000/svg"
   xmlns="http://www.w3.org/2000/svg"
   xmlns:sodipodi="http://sodipodi.sourceforge.net/DTD/sodipodi-0.dtd"
   xmlns:inkscape="http://www.inkscape.org/namespaces/inkscape"
   width="1236.4509"
   height="847.50952"
   viewBox="0 0 327.1443 224.23689"
   version="1.1"
   id="svg5474"
   inkscape:version="0.92.0 r15299"
   sodipodi:docname="aw root beer.svg">
  <defs
     id="defs5468" />
  <sodipodi:namedview
     id="base"
     pagecolor="#ffffff"
     bordercolor="#666666"
     borderopacity="1.0"
     inkscape:pageopacity="0.0"
     inkscape:pageshadow="2"
     inkscape:zoom="0.46317317"
     inkscape:cx="546.21908"
     inkscape:cy="374.38113"
     inkscape:document-units="mm"
     inkscape:current-layer="layer1"
     showgrid="false"
     fit-margin-top="0"
     fit-margin-left="0"
     fit-margin-right="0"
     fit-margin-bottom="0"
     units="px"
     inkscape:window-width="1280"
     inkscape:window-height="744"
     inkscape:window-x="-4"
     inkscape:window-y="-4"
     inkscape:window-maximized="1" />
  <metadata
     id="metadata5471">
    <rdf:RDF>
      <cc:Work
         rdf:about="">
        <dc:format>image/svg+xml</dc:format>
        <dc:type
           rdf:resource="http://purl.org/dc/dcmitype/StillImage" />
        <dc:title></dc:title>
      </cc:Work>
    </rdf:RDF>
  </metadata>
  <g
     inkscape:label="Layer 1"
     inkscape:groupmode="layer"
     id="layer1"
     transform="translate(185.8421,-34.853546)">
    <g
       id="g5761"
       transform="translate(0.39688394,-0.39689405)">
      <path
         d="m -136.06235,110.48249 c 0,0 -6.26357,-12.963877 7.70925,-23.047325 13.97283,-10.083095 38.305676,-24.72796 69.865178,-35.531075 34.946874,-11.963048 66.0227178,-17.310453 89.37943,-16.085609 18.309521,0.960614 19.755204,14.885107 19.755204,14.885107 0,0 73.237728,1.200502 87.210908,42.493497 13.97282,41.293345 -31.07832,78.985535 -46.978363,91.229395 0,0 4.576939,12.96423 -5.300487,20.88656 -9.877425,7.92269 -42.401069,28.5694 -73.719624,37.93247 -31.318907,9.36266 -50.591864,15.84632 -86.006522,15.84495 -18.792121,-0.001 -21.923376,-13.44426 -21.923376,-15.60502 0,0 -78.460998,-0.72045 -88.656268,-47.05463 -9.6544,-43.8778 46.4965,-84.50757 48.66467,-85.94832"
         style="fill:#4f2400;fill-opacity:1;fill-rule:nonzero;stroke:none;stroke-width:0.03527778"
         id="path5490"
         inkscape:connector-curvature="0" />
      <path
         d="m -133.24119,111.22544 c 0,0 -6.11469,-12.699999 7.52617,-22.577778 13.6405,-9.877778 37.394443,-24.224193 68.203587,-34.807527 34.11573,-11.719279 64.4525037,-16.957676 87.253591,-15.757526 17.874193,0.940858 19.285304,14.581718 19.285304,14.581718 0,0 71.496068,1.175808 85.136928,41.62778 13.64086,40.451623 -30.33889,77.375813 -45.861117,89.370263 0,0 4.468284,12.7 -5.174192,20.46111 -9.642476,7.76111 -41.39283,27.9872 -71.966671,37.15942 -30.573841,9.17223 -49.388539,15.52374 -83.960764,15.52223 -18.345151,-9.6e-4 -21.401971,-13.17061 -21.401971,-15.28728 0,0 -76.595435,-0.70555 -86.548175,-46.09599 -9.42481,-42.98315 45.39065,-82.78531 47.50731,-84.19642"
         style="fill:#d28816;fill-opacity:1;fill-rule:nonzero;stroke:none;stroke-width:0.03527778"
         id="path5492"
         inkscape:connector-curvature="0" />
      <path
         d="M 122.45005,100.09142 C 135.7406,140.95156 81.665759,195.16892 1.6670426,221.19122 -78.32991,247.21356 -153.95559,235.18592 -167.24621,194.32507 -180.53712,153.46811 -126.46044,99.248988 -46.463844,73.227745 33.532756,47.20509 109.15809,59.233049 122.45005,100.09142"
         style="fill:#ffffff;fill-opacity:1;fill-rule:nonzero;stroke:none;stroke-width:0.03527778"
         id="path5494"
         inkscape:connector-curvature="0" />
      <path
         d="m -46.90411,72.074161 c -80.78823,26.278771 -135.33886,81.223209 -121.84084,122.717989 13.49784,41.49729 89.933499,53.83252 170.7220843,27.55265 C 82.767837,196.06427 137.31646,141.1216 123.81847,99.624696 110.31943,58.129207 33.884828,45.793979 -46.90411,72.074161 Z m 166.1213,29.342289 C 132.16449,141.22073 79.415389,194.06084 1.3957565,219.44003 -76.622818,244.81855 -150.36643,233.12492 -163.31338,193.32001 -176.2612,153.51786 -123.51052,100.67597 -45.492646,75.298197 32.525928,49.919363 106.26884,61.613241 119.21719,101.41645"
         style="fill:#4f2400;fill-opacity:1;fill-rule:nonzero;stroke:none;stroke-width:0.03527778"
         id="path5496"
         inkscape:connector-curvature="0" />
      <path
         d="m -37.346301,135.77243 c 0.347838,0.17956 0.863952,-0.27835 0.460375,-0.99801 -0.390878,-0.69709 -1.22802,-0.92075 -2.532945,-0.92075 -1.304925,0 -6.524625,2.37948 -6.448073,6.29426 0.07691,3.91477 3.915128,4.3755 6.064251,3.68441 2.149475,-0.69074 1.535289,0.69074 0.767644,0.99801 -0.767644,0.30692 -10.517364,5.53332 -10.900128,14.96836 -0.230364,5.68043 5.272617,5.7591 7.215717,5.83389 3.991328,0.15346 11.205281,-3.15489 11.053587,-11.05359 -0.07655,-3.99168 -2.993673,-3.99168 -3.838223,-3.99168 -0.844197,0 -9.441745,1.76565 -8.290278,8.05991 0,0 0.230364,0.0769 0.383822,-0.76764 0.153811,-0.8442 1.473553,-4.51309 5.220053,-4.45206 2.072217,0.0339 2.686403,1.38183 2.686403,2.91712 0,1.53494 -0.921103,6.36658 -6.678084,6.36658 -1.995664,0 -4.912783,-1.37724 -4.758972,-5.062 0.153458,-3.68442 5.12445,-11.19294 13.135681,-11.89744 7.850012,-0.69038 8.432801,5.82789 8.433859,7.90611 0.0046,8.59719 -7.995356,19.45358 -23.412099,20.28366 -7.737475,0.41663 -11.283597,-6.08294 -10.592859,-11.68647 0.556331,-4.51097 5.506509,-11.39789 9.05757,-13.20306 1.367014,-0.69497 0.936978,-1.13841 0.328084,-1.20156 -2.477206,-0.25682 -2.728031,-4.18465 -2.579864,-5.8741 0.383822,-4.37515 2.712508,-6.74123 6.013097,-8.66035 3.300942,-1.91875 6.141156,-2.30258 7.752998,-2.30258 0.998008,0 4.713464,-0.002 4.912784,3.68442 0.153458,2.84021 -2.379839,7.13881 -6.064251,7.21536 -1.151114,0.024 -2.723444,-1.20932 -2.686403,-2.60985 0.07655,-2.91677 2.929467,-4.75403 5.296254,-3.53095"
         style="fill:#f15d22;fill-opacity:1;fill-rule:nonzero;stroke:none;stroke-width:0.03527778"
         id="path5498"
         inkscape:connector-curvature="0" />
      <path
         d="m -37.980243,128.7966 c 0,0 6.369756,0.24483 7.104945,5.14456 0.734836,4.89973 -3.919714,9.55463 -3.919714,9.55463 0,0 10.259836,-2.96933 12.269259,8.54498 2.009422,11.51397 -8.594726,18.64819 -8.594726,18.64819 l 3.429706,17.39406 c 1.225197,6.12458 7.5946,3.91972 7.5946,3.91972 l 13.9643568,-4.90009 c -3.9197138,-1.22484 -2.2048612,-5.87939 -2.2048612,-5.87939 0,0 15.9236843,-43.36239 16.903701,-46.05691 0.979664,-2.69487 2.2355534,0.73484 2.2355534,0.73484 l 5.849055,36.2578 c 0.980017,7.10494 8.084609,5.63456 8.084609,5.63456 l 16.168865,-5.63456 c -5.144558,-1.46968 -1.715205,-9.02512 -1.715205,-9.02512 0,0 26.458335,-80.211439 27.500087,-84.559072 1.408289,-5.879748 -5.451475,-5.879748 -5.451475,-5.879748 l -9.799109,3.429706 c 3.919714,0.980017 2.449689,6.614584 2.449689,6.614584 0,0 -17.883718,52.91667 -18.618907,54.63188 -0.735189,1.71485 -1.7145,-1.47003 -1.7145,-1.47003 0,0 -6.369756,-38.952666 -7.839781,-44.587233 -1.470025,-5.634567 -7.34942,-4.65455 -7.34942,-4.65455 L 6.1169818,90.579121 c 2.9396974,0.734836 1.9600335,6.614583 1.9600335,6.614583 0,0 -17.1488817,52.671846 -18.0198901,53.896336 -0.8713612,1.22484 -1.8238612,0 -1.8238612,0 0,0 -6.614584,-38.95232 -8.084256,-45.32207 -1.470025,-6.369404 -6.859764,-4.40972 -6.859764,-4.40972 l -18.373727,6.12457 c 6.124576,2.9397 7.10424,21.31378 7.10424,21.31378 z m -51.936653,45.56725 17.63889,-5.63492 -4.674306,-31.35771 z m 1.960033,-52.91667 22.783449,-7.5946 c 0,0 4.164894,-1.96004 5.879747,3.79695 1.714853,5.75733 4.654551,21.68137 4.654551,21.68137 0,0 -1.224845,8.08425 1.224844,9.79946 0,0 -11.024306,8.57426 -8.574264,18.12854 2.450041,9.55464 13.719175,10.04465 13.719175,10.04465 l 1.960034,12.49433 c 0,0 1.7145,7.83978 6.124223,8.81944 l -18.128546,5.63457 c 0,0 -7.349773,3.42935 -8.574617,-3.92007 -1.224845,-7.34942 -3.429706,-20.82341 -3.429706,-20.82341 l -23.518638,8.08461 -7.349419,22.04861 c 0,0 -1.96003,6.61423 2.204861,7.83943 l -7.594601,2.69451 c 0,0 -8.81944,2.9397 -6.85941,-7.10424 l 28.173187,-82.55988 c 0,0 1.95968,-6.12457 -2.69487,-9.06427"
         style="fill:#4f2400;fill-opacity:1;fill-rule:nonzero;stroke:none;stroke-width:0.03527778"
         id="path5500"
         inkscape:connector-curvature="0" />
      <path
         d="m 67.894019,72.942347 c -2.728031,-2.216503 -6.204656,-2.839155 -6.656917,-2.839155 -0.257528,0 -0.513997,0.04339 -0.757061,0.128411 l -9.799109,3.430058 c -0.956381,0.334434 -1.580092,1.2573 -1.533172,2.26942 0.04621,1.012119 0.751769,1.873603 1.734255,2.119489 0.376767,0.09419 0.534106,0.247297 0.654403,0.448028 0.505883,0.844903 0.32385,2.547761 0.148167,3.299883 -0.143228,0.424039 -0.288925,0.854781 -0.434975,1.286934 -0.118886,0.351719 -0.238478,0.70485 -0.358775,1.060802 C 36.821703,79.020709 17.690916,76.660978 -7.6519357,78.534581 -68.094415,83.003217 -129.71305,124.22566 -137.47417,131.01345 c 0,0 34.57223,-38.367757 104.18693,-56.712203 67.519907,-17.792348 137.58334,-6.820253 146.99087,28.355923 11.15271,41.70293 -38.619294,77.15251 -82.997683,92.87758 -11.856862,4.20123 -27.5395987,8.58873 -27.5395987,8.58873 0,0 33.1611127,-11.75914 50.3297507,-27.51667 17.168637,-15.75753 35.27778,-36.21864 29.633335,-59.73692 -2.333625,-9.72362 -7.504642,-18.362441 -17.596204,-25.254661 0,0 6.637867,-15.197668 2.360789,-18.672882"
         style="fill:#4f2400;fill-opacity:1;fill-rule:nonzero;stroke:none;stroke-width:0.03527778"
         id="path5502"
         inkscape:connector-curvature="0" />
      <path
         d="m -37.285271,216.70248 c -27.269018,2.01612 -46.03715,-0.78176 -60.97482,-6.54544 l -0.308328,0.85337 c -0.07796,0.30938 -1.497891,3.46216 0.232833,3.97157 0.953558,0.28046 1.617839,1.143 1.645356,2.13642 0.02716,0.99378 -0.588786,1.8923 -1.525411,2.22426 l -7.594599,2.69487 c -0.0141,0.005 -0.0279,0.01 -0.042,0.0145 -0.15911,0.0529 -1.60549,0.51823 -3.34539,0.51823 -2.25037,0 -4.07741,-0.774 -5.28391,-2.23873 -1.48414,-1.80199 -1.88983,-4.49227 -1.20579,-7.99888 0.0201,-0.10196 0.0469,-0.2025 0.0804,-0.30092 l 3.32317,-9.73879 c -8.65012,-6.64386 -13.63451,-14.97436 -15.78293,-23.92539 -5.64445,-23.51828 11.39049,-42.98844 28.559126,-58.74561 17.168637,-15.75788 51.403959,-28.507978 51.403959,-28.507978 0,0 -15.828082,3.997325 -27.539246,8.588728 -47.989069,18.81399 -94.441479,50.0313 -83.288719,91.73387 9.40752,35.17653 79.761999,47.29163 147.281906,29.49928 69.614349,-18.34445 104.186573,-56.71185 104.186573,-56.71185 -7.761111,6.78744 -69.379398,48.01023 -129.82223,52.47852"
         style="fill:#f15d22;fill-opacity:1;fill-rule:nonzero;stroke:none;stroke-width:0.03527778"
         id="path5504"
         inkscape:connector-curvature="0" />
      <g
         style="fill:#4f2400;fill-opacity:1"
         id="g5703">
        <path
           inkscape:connector-curvature="0"
           id="path5506"
           style="fill:#4f2400;fill-opacity:1;fill-rule:nonzero;stroke:none;stroke-width:0.03527778"
           d="m -101.79457,86.974084 c 0.012,0.02364 0.0293,0.05962 0.0409,0.08326 0.30833,0.631472 0.89076,0.595136 2.30505,-0.147814 l 0.975431,-0.512586 c 1.154994,-0.607131 1.518003,-0.992011 1.279525,-1.480609 l -0.186267,-0.381352 c -0.244122,-0.500239 -0.776817,-0.310445 -1.867253,0.172861 l -3.245556,1.450269 c -2.4257,1.079853 -3.79836,0.932745 -4.49615,-0.497064 l -0.26176,-0.536222 c -0.39511,-0.810331 -0.27094,-1.684161 0.34784,-2.518128 0.63288,-0.856544 1.69968,-1.491544 3.27271,-2.318103 l 2.3301,-1.224139 c 2.927705,-1.538111 4.821769,-1.605139 5.455358,-0.306211 l 0.290689,0.595842 -3.724275,1.956506 c -0.01729,-0.03563 -0.02893,-0.05927 -0.04657,-0.09525 -0.255764,-0.524228 -0.695322,-0.502709 -1.751182,0.05186 l -0.89606,0.470958 c -1.13524,0.596195 -1.55504,0.966611 -1.32821,1.43122 l 0.17392,0.357364 c 0.23283,0.476602 0.78811,0.230011 1.85844,-0.242711 l 2.960856,-1.315862 c 2.550936,-1.130653 4.103159,-1.077736 4.713464,0.173567 l 0.407106,0.833967 c 0.69215,1.417814 -0.416278,3.19793 -2.965803,4.537075 l -3.166534,1.6637 c -3.325629,1.747309 -5.153729,1.899003 -5.909379,0.349956 l -0.29033,-0.595842 3.72392,-1.956506" />
        <path
           inkscape:connector-curvature="0"
           id="path5508"
           style="fill:#4f2400;fill-opacity:1;fill-rule:nonzero;stroke:none;stroke-width:0.03527778"
           d="m -93.796747,75.295022 3.938059,-1.883127 4.122561,8.870245 -3.938411,1.883127 -4.122209,-8.870245" />
        <path
           inkscape:connector-curvature="0"
           id="path5510"
           style="fill:#4f2400;fill-opacity:1;fill-rule:nonzero;stroke:none;stroke-width:0.03527778"
           d="m -86.503771,71.768303 5.91185,-2.512836 7.370234,4.766733 -2.762956,-6.725356 3.791656,-1.611489 3.720395,9.054395 -5.911851,2.512836 -7.395986,-4.829528 2.788708,6.787798 -3.792008,1.611489 -3.720042,-9.054042" />
        <path
           inkscape:connector-curvature="0"
           id="path5512"
           style="fill:#4f2400;fill-opacity:1;fill-rule:nonzero;stroke:none;stroke-width:0.03527778"
           d="m -54.466608,65.838814 c 0.856544,2.426052 -0.439914,4.007908 -4.34587,5.444772 l -1.371247,0.50412 c -4.342342,1.597377 -6.134453,1.10878 -7.107414,-1.647473 L -67.96812,68.22218 c -0.972608,-2.756605 0.102305,-4.300008 4.444647,-5.897033 l 1.121834,-0.413103 c 4.238625,-1.558925 5.993695,-1.242836 6.862939,1.221317 l 0.0628,0.1778 -4.030487,1.482725 -0.05856,-0.1651 c -0.3048,-0.863953 -1.010356,-0.934156 -2.547761,-0.368653 -1.994959,0.733425 -2.029178,1.234369 -1.545167,2.605969 l 0.537986,1.524353 c 0.484011,1.3716 0.81915,1.722262 2.813756,0.988131 1.599847,-0.588081 2.053167,-1.099256 1.70815,-2.077508 -0.02258,-0.0635 -0.04939,-0.1397 -0.07655,-0.215548 l 4.114095,-1.513416 c 0.0314,0.0889 0.06279,0.1778 0.09384,0.2667" />
        <path
           inkscape:connector-curvature="0"
           id="path5514"
           style="fill:#4f2400;fill-opacity:1;fill-rule:nonzero;stroke:none;stroke-width:0.03527778"
           d="m -53.795625,58.959294 11.497734,-3.711576 0.64135,2.087034 -7.3914,2.386189 0.498122,1.623483 7.181145,-2.318103 0.554214,1.804106 -7.181145,2.31775 0.54222,1.7653 7.560381,-2.440164 0.640997,2.087387 -11.666362,3.76555 -2.877256,-9.366956" />
        <path
           inkscape:connector-curvature="0"
           id="path5516"
           style="fill:#4f2400;fill-opacity:1;fill-rule:nonzero;stroke:none;stroke-width:0.03527778"
           d="m -28.10317,51.224993 4.593872,-1.222022 2.378075,9.515828 -3.910542,1.040342 -1.76918,-7.081309 -1.617486,1.458736 -1.587148,-1.850319 1.912409,-1.861256" />
        <path
           inkscape:connector-curvature="0"
           id="path5518"
           style="fill:#4f2400;fill-opacity:1;fill-rule:nonzero;stroke:none;stroke-width:0.03527778"
           d="m -16.424814,50.198057 c -1.463322,0.342547 -1.741664,0.518583 -1.603728,1.151467 l 0.15487,0.711905 c 0.140405,0.646289 0.458963,0.655109 1.922286,0.312561 l 0.860778,-0.201788 c 1.398764,-0.327378 1.747308,-0.492125 1.60655,-1.138062 l -0.15487,-0.712258 c -0.140758,-0.645936 -0.548216,-0.6477 -1.925461,-0.325261 z m -0.276225,5.483225 c 0.0085,0.03951 0.01729,0.07937 0.02575,0.118886 0.123472,0.566914 0.474839,0.623006 1.550458,0.371123 l 1.033286,-0.241653 c 1.3335,-0.312208 1.566334,-0.49142 1.411464,-1.203678 l -0.364772,-1.674636 c -0.537633,0.541514 -1.309511,0.944033 -2.428875,1.206147 l -1.527528,0.357717 c -2.926292,0.685094 -4.400903,0.14358 -4.782961,-1.610431 l -0.189442,-0.870303 c -0.367595,-1.687689 1.192036,-2.94005 4.656314,-3.750733 l 1.85032,-0.433211 c 4.002264,-0.936978 5.448653,-0.111478 6.0600167,2.696986 l 0.4332111,1.991078 c 0.6141862,2.822222 -0.3742972,4.2037 -4.3546888,5.135739 l -1.850673,0.432858 c -3.206044,0.751064 -5.002036,0.395112 -5.308953,-1.015647 l -0.129116,-0.593019 3.916186,-0.917223" />
        <path
           inkscape:connector-curvature="0"
           id="path5520"
           style="fill:#4f2400;fill-opacity:1;fill-rule:nonzero;stroke:none;stroke-width:0.03527778"
           d="m -6.8091496,46.244829 4.6559614,-0.935214 1.77623625,9.653059 -3.96275305,0.795867 -1.3218584,-7.183262 -1.4978945,1.241425 -1.646414,-1.8669 1.9967223,-1.704975" />
        <path
           inkscape:connector-curvature="0"
           id="path5522"
           style="fill:#4f2400;fill-opacity:1;fill-rule:nonzero;stroke:none;stroke-width:0.03527778"
           d="m 5.2706679,46.035985 c -1.481314,0.243769 -1.7705918,0.401108 -1.6756946,1.042458 l 0.1072445,0.721783 c 0.097014,0.654756 0.4138083,0.684389 1.8947695,0.44062 L 6.4683485,48.097265 C 7.8843986,47.863726 8.2428208,47.722615 8.1458069,47.06786 L 8.0389153,46.346076 C 7.9419014,45.691321 7.5358541,45.662393 6.1416762,45.892051 Z m -0.6420556,5.45853 c 0.006,0.03986 0.011994,0.08008 0.017639,0.120298 0.08502,0.574675 0.4314473,0.65405 1.5208251,0.474839 L 7.2127098,51.917143 C 8.5631433,51.694893 8.8069127,51.531557 8.700021,50.809774 L 8.4484903,49.11256 C 7.8762847,49.617385 7.0800652,49.967693 5.9472957,50.154313 L 4.4010706,50.409371 C 1.4384426,50.897615 0.00475363,50.257676 -0.25877138,48.480029 L -0.38894639,47.598085 C -0.64224085,45.887818 0.9953537,44.741643 4.5023178,44.163793 l 1.8736029,-0.309034 c 4.0513003,-0.667808 5.4377173,0.254 5.8592863,3.100564 l 0.29845,2.017889 c 0.423686,2.859617 -0.653697,4.173715 -4.6838306,4.837642 L 5.976929,54.119535 C 2.7310205,54.654699 0.96501481,54.178802 0.75299535,52.748993 L 0.66374256,52.14786 4.6286123,51.494515" />
      </g>
      <g
         style="fill:#4f2400;fill-opacity:1"
         id="g5713">
        <path
           inkscape:connector-curvature="0"
           id="path5524"
           style="fill:#4f2400;fill-opacity:1;fill-rule:nonzero;stroke:none;stroke-width:0.03527778"
           d="m -54.489539,246.25679 c 1.434042,-0.21057 1.876073,-0.51358 1.741664,-1.37583 l -0.06032,-0.38351 c -0.134408,-0.86293 -0.651228,-1.0396 -2.085269,-0.8297 l -2.481792,0.36365 0.40393,2.58907 z m -7.671506,-3.79346 6.670676,-0.97786 c 4.643967,-0.6809 6.751461,-0.45752 7.095772,1.74833 l 0.126648,0.80793 c 0.209197,1.34222 -0.763764,2.26977 -2.855384,2.7438 2.265539,-0.10745 3.34257,0.37899 3.53695,1.62596 l 0.321028,2.05426 -4.530372,0.66463 -0.280459,-1.79451 c -0.134761,-0.86293 -0.651228,-1.03999 -2.085622,-0.82942 l -2.458509,0.36089 0.45332,2.90368 -4.439356,0.65084 -1.554692,-9.95853" />
        <path
           inkscape:connector-curvature="0"
           id="path5526"
           style="fill:#4f2400;fill-opacity:1;fill-rule:nonzero;stroke:none;stroke-width:0.03527778"
           d="m -41.752143,245.11619 c 0.324908,1.50428 0.638175,1.86587 2.869141,1.41428 l 0.811389,-0.16425 c 2.231673,-0.45201 2.391834,-0.90883 2.066925,-2.41335 l -0.351013,-1.62708 c -0.324909,-1.50495 -0.663223,-1.87424 -2.894542,-1.4235 l -0.811389,0.1644 c -2.231673,0.45201 -2.366434,0.91792 -2.041525,2.42259 z m 0.513997,-6.23066 2.163939,-0.43822 c 4.710642,-0.95317 6.522509,-0.18838 7.156803,2.75389 l 0.442031,2.04636 c 0.634647,2.94227 -0.708731,4.34594 -5.419373,5.30024 l -2.164292,0.4378 c -4.710289,0.95345 -6.499931,0.18369 -7.134578,-2.75802 l -0.441325,-2.04721 c -0.635,-2.94156 0.686153,-4.34139 5.396795,-5.29484" />
        <path
           inkscape:connector-curvature="0"
           id="path5528"
           style="fill:#4f2400;fill-opacity:1;fill-rule:nonzero;stroke:none;stroke-width:0.03527778"
           d="m -25.539181,241.57186 c 0.398639,1.48844 0.729191,1.8342 2.935464,1.27995 l 0.802569,-0.20108 c 2.206273,-0.55425 2.343856,-1.01822 1.944864,-2.50691 l -0.431094,-1.6086 c -0.398639,-1.4884 -0.755297,-1.84255 -2.961923,-1.28831 l -0.802216,0.20105 c -2.206625,0.55492 -2.31775,1.02652 -1.919112,2.51492 z m 0.204964,-6.24843 2.139597,-0.53714 c 4.657725,-1.17052 6.50487,-0.48934 7.284509,2.4197 l 0.542925,2.0253 c 0.779639,2.90957 -0.493184,4.37473 -5.150909,5.54411 l -2.139597,0.53728 c -4.658078,1.17052 -6.482998,0.4837 -7.262637,-2.42601 l -0.542925,-2.02463 c -0.779639,-2.90929 0.470606,-4.36905 5.129037,-5.53861" />
        <path
           inkscape:connector-curvature="0"
           id="path5530"
           style="fill:#4f2400;fill-opacity:1;fill-rule:nonzero;stroke:none;stroke-width:0.03527778"
           d="m -11.276375,234.02739 -4.122561,1.20509 -0.669572,-2.14834 12.5659447,-3.67355 0.6695723,2.14806 -4.1003364,1.19874 2.337153,7.49198 -4.3430475,1.26933 -2.3371531,-7.49131" />
        <path
           inkscape:connector-curvature="0"
           id="path5532"
           style="fill:#4f2400;fill-opacity:1;fill-rule:nonzero;stroke:none;stroke-width:0.03527778"
           d="m 17.292983,230.66789 3.121025,-1.14829 c 0.925336,-0.34078 1.258005,-0.6851 1.064683,-1.17722 l -0.1524,-0.38841 c -0.193675,-0.49107 -0.678392,-0.53516 -1.604081,-0.19473 l -3.121025,1.14794 z m -1.398764,-3.55988 2.970389,-1.09291 c 0.882297,-0.32455 1.177219,-0.64029 0.994127,-1.10631 l -0.147108,-0.37535 c -0.183444,-0.46637 -0.620183,-0.51294 -1.502481,-0.18839 l -2.970741,1.09291 z m 1.711677,-4.92584 c 3.701345,-1.36172 5.45959,-1.40158 6.110465,0.25577 l 0.23883,0.60854 c 0.416984,1.06115 -0.203905,1.92652 -1.939219,2.71321 1.958622,-0.46884 3.288242,-0.15804 3.674886,0.82586 l 0.218722,0.55703 c 0.752123,1.91559 -0.733072,3.0255 -4.715228,4.48977 l -7.253111,2.66845 -3.696406,-9.41035 7.361061,-2.70828" />
        <path
           inkscape:connector-curvature="0"
           id="path5534"
           style="fill:#4f2400;fill-opacity:1;fill-rule:nonzero;stroke:none;stroke-width:0.03527778"
           d="m 24.925683,219.43368 11.554884,-4.79425 0.914047,2.06128 -7.427736,3.08257 0.710494,1.60338 7.216423,-2.99403 0.789517,1.78188 -7.21607,2.99474 0.772583,1.74272 7.597423,-3.15207 0.913694,2.06163 -11.723512,4.86516 -4.101747,-9.25301" />
        <path
           inkscape:connector-curvature="0"
           id="path5536"
           style="fill:#4f2400;fill-opacity:1;fill-rule:nonzero;stroke:none;stroke-width:0.03527778"
           d="m 38.492106,213.75502 11.315348,-5.30825 1.011061,2.01859 -7.273573,3.41278 0.787401,1.56986 7.066139,-3.31506 0.874183,1.74449 -7.066492,3.3147 0.855839,1.70709 7.439731,-3.48967 1.011061,2.01824 -11.479742,5.38656 -4.540956,-9.05933" />
        <path
           inkscape:connector-curvature="0"
           id="path5538"
           style="fill:#4f2400;fill-opacity:1;fill-rule:nonzero;stroke:none;stroke-width:0.03527778"
           d="m 60.310707,208.43054 c 1.26612,-0.68545 1.569509,-1.11936 1.129242,-1.88066 l -0.195792,-0.33866 c -0.439913,-0.76094 -0.98813,-0.75001 -2.25425,-0.0653 l -2.190044,1.18604 1.3208,2.28389 z m -8.56227,-0.93556 5.88892,-3.187 c 4.099631,-2.21862 6.154562,-2.72662 7.278865,-0.78176 l 0.412397,0.71332 c 0.684389,1.18392 0.111125,2.38302 -1.674284,3.53942 2.081037,-0.87277 3.266723,-0.78422 3.903134,0.31538 l 1.047397,1.81258 -3.999089,2.16464 -0.915105,-1.58291 c -0.440267,-0.762 -0.987778,-0.75036 -2.254251,-0.0656 l -2.170289,1.17475 1.480962,2.56223 -3.919009,2.12019 -5.079648,-8.78522" />
      </g>
      <g
         style="fill:#d28816;fill-opacity:1"
         id="g5723">
        <path
           inkscape:connector-curvature="0"
           id="path5540"
           style="fill:#d28816;fill-opacity:1;fill-rule:nonzero;stroke:none;stroke-width:0.03527778"
           d="m -85.498002,170.24552 5.472289,-1.74837 3.815292,-10.88637 -1.450269,-9.7282 -7.837312,22.36294" />
        <path
           inkscape:connector-curvature="0"
           id="path5542"
           style="fill:#d28816;fill-opacity:1;fill-rule:nonzero;stroke:none;stroke-width:0.03527778"
           d="m -87.417819,191.6863 15.922979,-5.4737 c -0.246944,-1.50566 -0.4699,-2.8628 -0.648053,-3.95147 l -19.126906,6.57507 c -0.05397,0.10407 -0.102659,0.21132 -0.140406,0.32456 l -7.349773,22.04861 c -0.0081,0.0243 -0.01587,0.049 -0.02293,0.0737 -0.0635,0.21414 -0.334081,1.17863 -0.472017,2.4564 0.127,0.60713 0.399697,1.08937 0.919339,1.24248 0.953558,0.28046 1.617839,1.143 1.645356,2.13642 0.02716,0.99378 -0.588786,1.8923 -1.525411,2.22426 l -7.594599,2.69487 c -0.0141,0.005 -0.0279,0.01 -0.042,0.0145 -0.15911,0.0529 -1.60549,0.51823 -3.34539,0.51823 -0.34043,0 -0.66781,-0.024 -0.98813,-0.0589 0.097,0.14181 0.19826,0.2801 0.30726,0.41239 1.2065,1.46474 3.03354,2.23838 5.28391,2.23838 1.7399,0 3.18629,-0.46496 3.34539,-0.51788 0.0141,-0.005 0.0279,-0.01 0.042,-0.0148 l 7.594603,-2.69451 c 0.936625,-0.33232 1.552575,-1.23049 1.525059,-2.22427 -0.02716,-0.99342 -0.691445,-1.85631 -1.645003,-2.13677 -1.730728,-0.50906 -0.735895,-4.6602 -0.657931,-4.96958 l 6.972653,-20.91796" />
        <path
           inkscape:connector-curvature="0"
           id="path5544"
           style="fill:#d28816;fill-opacity:1;fill-rule:nonzero;stroke:none;stroke-width:0.03527778"
           d="m -35.086054,198.6713 c -2.212622,-0.49107 -3.885142,-4.8948 -4.361039,-7.35577 l -1.845381,-11.76444 c 0.02575,0.16581 3.356328,-0.62865 4.455936,-0.98354 0.247298,-0.0797 4.404078,-2.03553 4.398081,-1.77342 -0.0025,0.11395 -0.16263,-3.80294 -0.531989,-4.93042 -0.0095,-0.0289 -3.369733,3.19229 -12.990689,5.06871 l 1.903941,12.13768 c 0.482953,2.11455 2.155473,6.51792 4.368095,7.00934 1.014942,0.22578 1.750836,1.10525 1.793875,2.14418 0.04304,1.03823 -0.618066,1.97591 -1.61043,2.28424 l -18.002604,5.59541 c -0.56515,0.24236 -2.369962,0.94191 -4.429126,0.94191 -0.35313,0 -0.691797,-0.0268 -1.023408,-0.0667 1.283053,1.72191 3.212042,2.65853 5.626453,2.65853 2.059164,0 3.863975,-0.6992 4.429125,-0.94156 l 18.002604,-5.59576 c 0.992364,-0.30798 1.65347,-1.24566 1.610431,-2.28389 -0.04304,-1.03928 -0.779286,-1.9184 -1.793875,-2.14453" />
        <path
           inkscape:connector-curvature="0"
           id="path5546"
           style="fill:#d28816;fill-opacity:1;fill-rule:nonzero;stroke:none;stroke-width:0.03527778"
           d="m -0.84579364,187.20672 c -0.61030556,-0.19014 -0.74400836,-0.4572 -0.80115836,-0.57185 -0.3351389,-0.66604 -0.098072,-1.86514 0.064558,-2.32798 0.1086559,-0.29563 7.4626619,-20.32212 12.448118,-33.90689 l -1.4918976,-9.24736 c -4.2597919,11.61521 -15.1292287,41.21327 -15.260462,41.57063 -0.046214,0.12524 -0.2204862,0.62653 -0.3531306,1.33915 0.062442,0.12276 0.2109611,0.37182 0.7909278,0.55245 0.9433279,0.29492 1.5910279,1.16099 1.608314,2.14912 0.017286,0.98778 -0.6007806,1.87607 -1.5331723,2.20345 l -13.9643563,4.90008 c -0.160514,0.0554 -1.539522,0.51541 -3.263195,0.51541 -0.428272,0 -0.838553,-0.0317 -1.236486,-0.0854 1.315156,1.72931 3.320697,2.67758 5.839178,2.67758 1.724025,0 3.102681,-0.46037 3.263195,-0.51541 l 13.96470903,-4.90043 c 0.93239172,-0.32703 1.55010565,-1.21532 1.53317232,-2.20345 -0.0172861,-0.98813 -0.66498615,-1.8542 -1.60831399,-2.14913" />
        <path
           inkscape:connector-curvature="0"
           id="path5548"
           style="fill:#d28816;fill-opacity:1;fill-rule:nonzero;stroke:none;stroke-width:0.03527778"
           d="m -49.829344,131.88587 c -0.121003,-0.65511 -1.138414,-6.79273 -2.868436,-12.60087 -1.431925,-4.80801 -4.525787,-5.64691 -6.112228,-5.74534 0.585964,0.79199 1.111955,1.81893 1.509183,3.15348 1.730022,5.80779 3.885495,18.08904 4.006497,18.74415" />
        <path
           inkscape:connector-curvature="0"
           id="path5550"
           style="fill:#d28816;fill-opacity:1;fill-rule:nonzero;stroke:none;stroke-width:0.03527778"
           d="M 45.969584,166.14483 C 47.050848,162.86682 72.4699,85.792279 73.52153,81.401959 c 0.693914,-2.895953 -0.174272,-4.789311 -1.024819,-5.8674 -1.268236,-1.607962 -3.164064,-2.305403 -4.615745,-2.608087 0.0039,0.0056 0.0088,0.01023 0.01305,0.01587 0.819856,1.039636 1.835503,2.939345 1.271764,5.663495 0.02893,0.452967 -0.265642,0.897114 -0.457553,1.698625 -0.804686,3.360914 -17.907706,56.555568 -27.058763,84.296958 -0.226836,0.52176 -0.890058,2.16817 -1.154641,4.11269 0.02505,0.0776 0.0515,0.1538 0.08431,0.22402 0.117827,0.25293 0.323144,0.53692 0.954263,0.71683 0.96132,0.27481 1.63442,1.14018 1.662642,2.13924 0.02822,0.99978 -0.594078,1.90183 -1.538111,2.23098 l -16.168512,5.63422 c -0.0949,0.0332 -0.191558,0.06 -0.289983,0.0804 -0.1397,0.0289 -0.892176,0.17392 -1.958976,0.17392 -0.755297,0 -1.467908,-0.0773 -2.144183,-0.21273 1.566686,1.80199 3.884084,2.80459 6.747228,2.80459 1.0668,0 1.819275,-0.14465 1.958975,-0.17358 0.09843,-0.0208 0.195086,-0.0476 0.289984,-0.0804 l 16.168512,-5.63421 c 0.944033,-0.32949 1.566333,-1.23119 1.538111,-2.23097 -0.02822,-0.99906 -0.701675,-1.86479 -1.662642,-2.1396 -0.631119,-0.17992 -0.836436,-0.46355 -0.954264,-0.71649 -0.620889,-1.33243 0.203906,-4.0527 0.697795,-5.15584 0.03387,-0.0744 0.0635,-0.15099 0.0896,-0.22966" />
        <path
           inkscape:connector-curvature="0"
           id="path5552"
           style="fill:#d28816;fill-opacity:1;fill-rule:nonzero;stroke:none;stroke-width:0.03527778"
           d="m -17.617909,104.9534 c 1.16205,5.03591 5.396795,29.58254 7.246056,40.38601 0.7334255,-2.12337 1.6760478,-4.90785 2.7566062,-8.13083 -2.0111863,-11.60321 -4.5420142,-25.94645 -5.3999702,-29.66296 -1.141941,-4.94948 -4.316942,-6.15739 -6.315075,-6.41068 0.718256,0.92286 1.329619,2.16041 1.712383,3.81846" />
        <path
           inkscape:connector-curvature="0"
           id="path5554"
           style="fill:#d28816;fill-opacity:1;fill-rule:nonzero;stroke:none;stroke-width:0.03527778"
           d="m 27.933467,90.436246 c 1.19133,4.566708 5.405261,29.780444 7.139164,40.269584 0.764117,-2.22285 1.719792,-5.01862 2.803525,-8.19609 -1.956153,-11.61908 -4.464403,-26.125308 -5.339645,-29.481283 -0.874183,-3.350684 -3.240264,-5.572478 -6.492875,-6.227939 0.868539,0.986014 1.516944,2.206272 1.889831,3.635728" />
      </g>
    </g>
  </g>
</svg>
